<svg id="Layer_1" data-name="Layer 1" xmlns="http://www.w3.org/2000/svg" viewBox="0 0 206.16 54.81"><defs><style>.cls-1{fill:#fff;}</style></defs><polygon class="cls-1" points="4.93 23.35 17.72 23.35 17.72 5.37 4.93 8.58 4.93 23.35"/><polygon class="cls-1" points="4.93 39.56 17.72 51.6 17.72 25.99 4.93 25.99 4.93 39.56"/><polygon class="cls-1" points="20.53 37.94 33.31 36.35 33.31 25.99 20.53 25.99 20.53 37.94"/><polygon class="cls-1" points="20.53 23.35 33.31 23.35 33.31 12.62 20.53 10.61 20.53 23.35"/><path class="cls-1" d="M58.08,15.59a7,7,0,0,0-2.38-1.15,11.39,11.39,0,0,0-2.92-.37H41.27V32.65h3.82v-6h7.69a12.38,12.38,0,0,0,2.92-.33,6.71,6.71,0,0,0,2.38-1.06,5.06,5.06,0,0,0,1.6-1.91,6.45,6.45,0,0,0,.57-2.84,6.73,6.73,0,0,0-.57-2.9A5.41,5.41,0,0,0,58.08,15.59Zm-2.54,7.17a3.4,3.4,0,0,1-2.41.82h-8V17.35h8a3.44,3.44,0,0,1,2.41.8,3,3,0,0,1,.89,2.33A3,3,0,0,1,55.54,22.76Z"/><path class="cls-1" d="M76.51,22.68a9.44,9.44,0,0,0-.32-.94A5.68,5.68,0,0,0,74,19.06a7,7,0,0,0-4-1A8.48,8.48,0,0,0,66,19a7.16,7.16,0,0,0-2.8,2.6,7.29,7.29,0,0,0-1,3.93,7.33,7.33,0,0,0,1,3.89A7.09,7.09,0,0,0,66,32a8.07,8.07,0,0,0,3.86.93,7.19,7.19,0,0,0,3.25-.67,6.1,6.1,0,0,0,2.18-1.78,7.83,7.83,0,0,0,1.24-2.42.53.53,0,0,1,0-.12v1c0,.55,0,1.12,0,1.69s.11,1.24.21,2h3.47V18.38H76.51Zm-.66,5.24a4.36,4.36,0,0,1-1.9,1.6A6.78,6.78,0,0,1,71,30.1a5.69,5.69,0,0,1-2.63-.58,4.31,4.31,0,0,1-1.76-1.59,4.48,4.48,0,0,1-.64-2.4,4.34,4.34,0,0,1,1.33-3.32A5.17,5.17,0,0,1,71,21a7.22,7.22,0,0,1,2.92.53,4.21,4.21,0,0,1,1.89,1.55,4.4,4.4,0,0,1,.68,2.48A4.36,4.36,0,0,1,75.85,27.92Z"/><path class="cls-1" d="M95.42,29.32a6.05,6.05,0,0,1-3.29.81,7.13,7.13,0,0,1-2.73-.51,4.11,4.11,0,0,1-2.67-4.06A4.36,4.36,0,0,1,87.46,23a4.56,4.56,0,0,1,2-1.54,7,7,0,0,1,2.71-.51,6,6,0,0,1,3.19.8A4.13,4.13,0,0,1,97.13,24h3.42a6,6,0,0,0-1.22-3.19,6.66,6.66,0,0,0-2.86-2,12,12,0,0,0-4.34-.71,12.11,12.11,0,0,0-4.72.87,7.38,7.38,0,0,0-3.28,2.52,6.91,6.91,0,0,0-1.19,4.11,6.82,6.82,0,0,0,1.19,4.09,7.35,7.35,0,0,0,3.28,2.5,13.75,13.75,0,0,0,9.09.15,6.52,6.52,0,0,0,2.88-2.06,5.88,5.88,0,0,0,1.2-3.22H97.16A4,4,0,0,1,95.42,29.32Z"/><path class="cls-1" d="M130.53,19.47a5.27,5.27,0,0,0-1.95-1.06,8.27,8.27,0,0,0-2.44-.35,7.5,7.5,0,0,0-2.66.46,7,7,0,0,0-2.08,1.24A6.84,6.84,0,0,0,120,21.48c-.12.22-.21.44-.31.67a5.28,5.28,0,0,0-.26-.85,4.89,4.89,0,0,0-1.29-1.83,5.39,5.39,0,0,0-2-1.06,8.22,8.22,0,0,0-2.44-.35,7.81,7.81,0,0,0-2.73.46,6.74,6.74,0,0,0-2.08,1.25,6.66,6.66,0,0,0-1.39,1.74,6.06,6.06,0,0,0-.43,1V18.38h-3.74V32.65h3.74V24.19a3.66,3.66,0,0,1,.66-1.08,5.77,5.77,0,0,1,2-1.46,6.22,6.22,0,0,1,2.7-.57,4,4,0,0,1,2.86.85,3.55,3.55,0,0,1,.87,2.65v8.07h3.74V23.92c0-.13,0-.25,0-.37a4.59,4.59,0,0,1,.33-.44,5.82,5.82,0,0,1,2-1.46,6.22,6.22,0,0,1,2.7-.57,4.05,4.05,0,0,1,2.87.85,3.52,3.52,0,0,1,.89,2.65v8.07h3.73V23.92a6.53,6.53,0,0,0-.47-2.62A4.93,4.93,0,0,0,130.53,19.47Z"/><path class="cls-1" d="M151.11,30.53a5.16,5.16,0,0,0,1.22-2.61h-3.62a2.94,2.94,0,0,1-1.53,1.59,6.48,6.48,0,0,1-3,.62,6.88,6.88,0,0,1-2.77-.52,4.54,4.54,0,0,1-1.84-1.41,4,4,0,0,1-.81-2h13.61a9.19,9.19,0,0,0-.76-4.58A5.88,5.88,0,0,0,148.86,19a11,11,0,0,0-4.69-.89,12.11,12.11,0,0,0-4.81.89,7.33,7.33,0,0,0-3.2,2.57,7.06,7.06,0,0,0-1.15,4,6.75,6.75,0,0,0,1.18,4,7.35,7.35,0,0,0,3.27,2.54,12.35,12.35,0,0,0,4.83.88,11.45,11.45,0,0,0,4.14-.66A6.65,6.65,0,0,0,151.11,30.53Zm-10.47-8.72a6.85,6.85,0,0,1,6.68-.06A3,3,0,0,1,148.68,24H139A4,4,0,0,1,140.64,21.81Z"/><path class="cls-1" d="M158.23,32a8.14,8.14,0,0,0,3.9.93,7.18,7.18,0,0,0,3.24-.67,6.1,6.1,0,0,0,2.18-1.78,7.83,7.83,0,0,0,1.24-2.42l0-.12v1c0,.61,0,1.27.08,2s.12,1.26.18,1.7h3.47v-20h-3.73v10s0-.05,0-.07a6.36,6.36,0,0,0-1.22-2.37,5.49,5.49,0,0,0-2.18-1.59,8.39,8.39,0,0,0-3.27-.58,8.17,8.17,0,0,0-3.94.94,6.92,6.92,0,0,0-2.71,2.6,7.55,7.55,0,0,0-1,3.93,7.41,7.41,0,0,0,1,3.89A7,7,0,0,0,158.23,32Zm1.4-9.84a5.14,5.14,0,0,1,3.7-1.26,7.21,7.21,0,0,1,2.92.54,4.39,4.39,0,0,1,0,8,6.78,6.78,0,0,1-2.93.58,5.69,5.69,0,0,1-2.63-.58,4.31,4.31,0,0,1-1.76-1.59,4.47,4.47,0,0,1-.63-2.4A4.39,4.39,0,0,1,159.63,22.2Z"/><rect class="cls-1" x="176.8" y="18.38" width="3.73" height="14.27"/><rect class="cls-1" x="176.52" y="12.12" width="4.34" height="3.27"/><path class="cls-1" d="M197.91,18.38v4.3a9.4,9.4,0,0,0-.31-.94,5.68,5.68,0,0,0-2.2-2.68,7.07,7.07,0,0,0-4-1,8.5,8.5,0,0,0-4,.94,7.13,7.13,0,0,0-2.79,2.6,7.29,7.29,0,0,0-1,3.93,7.33,7.33,0,0,0,1,3.89A7.09,7.09,0,0,0,187.36,32a8,8,0,0,0,3.86.93,7.22,7.22,0,0,0,3.25-.67,6.19,6.19,0,0,0,2.18-1.78,7.8,7.8,0,0,0,1.23-2.42.53.53,0,0,0,0-.12v1c0,.55,0,1.12.06,1.69s.11,1.24.2,2h3.48V18.38Zm-.66,9.54a4.33,4.33,0,0,1-1.89,1.6,6.81,6.81,0,0,1-2.93.58,5.66,5.66,0,0,1-2.63-.58A4.27,4.27,0,0,1,188,27.93a4.47,4.47,0,0,1-.63-2.4,4.37,4.37,0,0,1,1.32-3.32A5.2,5.2,0,0,1,192.43,21a7.14,7.14,0,0,1,2.91.53,4.18,4.18,0,0,1,1.9,1.55,4.79,4.79,0,0,1,0,4.87Z"/><path class="cls-1" d="M150.34,38.28a1.45,1.45,0,0,1,.94.3,1.35,1.35,0,0,1,.48.81h1.73a3,3,0,0,0-1-1.84,3.21,3.21,0,0,0-2.08-.67,3.52,3.52,0,0,0-1.67.39,2.84,2.84,0,0,0-1.13,1.15,4,4,0,0,0,0,3.51,2.82,2.82,0,0,0,1.13,1.14,3.41,3.41,0,0,0,1.67.4,3.21,3.21,0,0,0,2.08-.67,3,3,0,0,0,1-1.83h-1.73a1.3,1.3,0,0,1-.48.8,1.45,1.45,0,0,1-.94.3,1.42,1.42,0,0,1-1.09-.48,2.53,2.53,0,0,1,0-2.82A1.4,1.4,0,0,1,150.34,38.28Z"/><path class="cls-1" d="M156.28,38.19V37h-1.63v6.43h1.63v-3.1c0-1.11.6-1.67,1.8-1.67h.48V36.87a2.55,2.55,0,0,0-1.32.35A2.7,2.7,0,0,0,156.28,38.19Z"/><path class="cls-1" d="M164,37.27a3.43,3.43,0,0,0-1.67-.39,3.52,3.52,0,0,0-1.67.39,2.93,2.93,0,0,0-1.14,1.15,4.05,4.05,0,0,0,0,3.51,2.91,2.91,0,0,0,1.14,1.14,3.41,3.41,0,0,0,1.67.4,3.47,3.47,0,0,0,1.46-.3,2.78,2.78,0,0,0,1.07-.83,2.84,2.84,0,0,0,.55-1.21H163.7a1.21,1.21,0,0,1-.48.75,1.53,1.53,0,0,1-.95.28,1.47,1.47,0,0,1-1.06-.4,1.78,1.78,0,0,1-.47-1.27h4.71a3,3,0,0,0,.06-.56,3.15,3.15,0,0,0-.39-1.57A2.81,2.81,0,0,0,164,37.27Zm-3.28,2.5a1.69,1.69,0,0,1,.5-1.2,1.59,1.59,0,0,1,1.11-.4,1.57,1.57,0,0,1,1.1.4,1.43,1.43,0,0,1,.41,1.2Z"/><path class="cls-1" d="M171.41,38.3a2.08,2.08,0,0,0-.83-1,2.49,2.49,0,0,0-1.39-.38,2.65,2.65,0,0,0-2.48,1.54,4.48,4.48,0,0,0,0,3.52,2.66,2.66,0,0,0,2.48,1.53,2.42,2.42,0,0,0,1.39-.39,2.05,2.05,0,0,0,.83-1v1.34H173V37h-1.62Zm-.48,3.23a1.78,1.78,0,0,1-2.46,0,1.9,1.9,0,0,1-.46-1.36,1.93,1.93,0,0,1,.46-1.37,1.58,1.58,0,0,1,1.23-.5,1.64,1.64,0,0,1,1.23.5,2.17,2.17,0,0,1,0,2.72Z"/><path class="cls-1" d="M176.69,41.8a.92.92,0,0,1-.19-.65V38.34h1.44V37H176.5V35.37h-1.63V37H174v1.38h.9v2.79a2.28,2.28,0,0,0,.57,1.74,2.39,2.39,0,0,0,1.66.52H178V42h-.64A.83.83,0,0,1,176.69,41.8Z"/><path class="cls-1" d="M180,34.22a1.09,1.09,0,0,0-.73.25.85.85,0,0,0-.28.65.84.84,0,0,0,.28.63A1.09,1.09,0,0,0,180,36a1.08,1.08,0,0,0,.73-.25.81.81,0,0,0,.28-.63.82.82,0,0,0-.28-.65A1.08,1.08,0,0,0,180,34.22Z"/><rect class="cls-1" x="179.13" y="36.96" width="1.64" height="6.43"/><polygon class="cls-1" points="185.05 41.76 183.41 36.96 181.66 36.96 184.04 43.39 186.03 43.39 188.41 36.96 186.67 36.96 185.05 41.76"/><path class="cls-1" d="M193.88,37.27a3.77,3.77,0,0,0-3.34,0,2.81,2.81,0,0,0-1.14,1.15,4.05,4.05,0,0,0,0,3.51,2.78,2.78,0,0,0,1.14,1.14,3.38,3.38,0,0,0,1.67.4,3.5,3.5,0,0,0,1.46-.3,2.94,2.94,0,0,0,1.07-.83,2.84,2.84,0,0,0,.55-1.21h-1.73a1.21,1.21,0,0,1-.48.75,1.55,1.55,0,0,1-1,.28,1.5,1.5,0,0,1-1.07-.4,1.82,1.82,0,0,1-.46-1.27h4.71a3,3,0,0,0,.06-.56,3.15,3.15,0,0,0-.39-1.57A2.88,2.88,0,0,0,193.88,37.27Zm-3.28,2.5a1.65,1.65,0,0,1,.5-1.2,1.73,1.73,0,0,1,2.21,0,1.46,1.46,0,0,1,.41,1.2Z"/><path class="cls-1" d="M200.47,40a7.37,7.37,0,0,0-1.19-.34,8.14,8.14,0,0,1-.8-.23,1.32,1.32,0,0,1-.47-.25.55.55,0,0,1-.18-.43.67.67,0,0,1,.23-.53,1,1,0,0,1,.65-.2,1.25,1.25,0,0,1,.85.28,1.33,1.33,0,0,1,.42.74h1.53a2.6,2.6,0,0,0-.88-1.58,2.88,2.88,0,0,0-1.88-.59,2.71,2.71,0,0,0-1.77.52,1.66,1.66,0,0,0-.64,1.36,1.54,1.54,0,0,0,.32,1,1.8,1.8,0,0,0,.77.54,9.74,9.74,0,0,0,1.16.33l.81.22a1.4,1.4,0,0,1,.48.27.62.62,0,0,1,.19.45.67.67,0,0,1-.22.53.89.89,0,0,1-.64.2,1.52,1.52,0,0,1-.94-.27,1.06,1.06,0,0,1-.42-.75h-1.57a2.4,2.4,0,0,0,.92,1.61,3.24,3.24,0,0,0,2,.56A2.73,2.73,0,0,0,201,43a1.63,1.63,0,0,0,.64-1.33,1.57,1.57,0,0,0-.33-1.05A2,2,0,0,0,200.47,40Z"/></svg>