<svg id="Layer_1" data-name="Layer 1" xmlns="http://www.w3.org/2000/svg" viewBox="0 0 196.71 46.23"><defs><style>.cls-1{fill:#1d1d1b;}</style></defs><polygon class="cls-1" points="0 17.98 12.79 17.98 12.79 0 0 3.21 0 17.98"/><polygon class="cls-1" points="0 34.2 12.79 46.23 12.79 20.62 0 20.62 0 34.2"/><polygon class="cls-1" points="15.6 32.57 28.38 30.99 28.38 20.62 15.6 20.62 15.6 32.57"/><polygon class="cls-1" points="15.6 17.98 28.38 17.98 28.38 7.25 15.6 5.24 15.6 17.98"/><path class="cls-1" d="M53.15,10.23a6.9,6.9,0,0,0-2.39-1.15,10.94,10.94,0,0,0-2.91-.38H36.33V27.29h3.82v-6h7.7a12.35,12.35,0,0,0,2.91-.33,6.77,6.77,0,0,0,2.39-1.07A5,5,0,0,0,54.74,18a6.45,6.45,0,0,0,.58-2.84,6.72,6.72,0,0,0-.58-2.9A5.17,5.17,0,0,0,53.15,10.23Zm-2.54,7.16a3.43,3.43,0,0,1-2.42.82h-8V12h8a3.51,3.51,0,0,1,2.42.8,3,3,0,0,1,.89,2.33A2.94,2.94,0,0,1,50.61,17.39Z"/><path class="cls-1" d="M71.57,17.31c-.09-.32-.19-.63-.31-.94a5.73,5.73,0,0,0-2.2-2.68,7.15,7.15,0,0,0-4-1,8.5,8.5,0,0,0-4,.93,7.06,7.06,0,0,0-3.83,6.53,7.37,7.37,0,0,0,1,3.9A7.07,7.07,0,0,0,61,26.67a8,8,0,0,0,3.86.93,7.22,7.22,0,0,0,3.25-.67,6.08,6.08,0,0,0,2.18-1.78,7.69,7.69,0,0,0,1.23-2.42.53.53,0,0,0,0-.12v1c0,.56,0,1.12.06,1.7s.1,1.23.2,2h3.48V13H71.57Zm-.66,5.24A4.41,4.41,0,0,1,69,24.16a7,7,0,0,1-2.93.57,5.79,5.79,0,0,1-2.63-.57,4.36,4.36,0,0,1-1.77-1.6,4.47,4.47,0,0,1-.63-2.4,4.35,4.35,0,0,1,1.32-3.31,5.16,5.16,0,0,1,3.71-1.25,7.14,7.14,0,0,1,2.91.53,4.18,4.18,0,0,1,1.9,1.55,4.4,4.4,0,0,1,.67,2.48A4.36,4.36,0,0,1,70.91,22.55Z"/><path class="cls-1" d="M90.49,24a6.17,6.17,0,0,1-3.29.8,7.25,7.25,0,0,1-2.73-.5,4.1,4.1,0,0,1-2.67-4.07,4.29,4.29,0,0,1,.73-2.57,4.49,4.49,0,0,1,2-1.53,6.84,6.84,0,0,1,2.72-.52,6.12,6.12,0,0,1,3.19.8,4.1,4.1,0,0,1,1.8,2.24h3.42a5.81,5.81,0,0,0-1.22-3.18,6.62,6.62,0,0,0-2.86-2,11.91,11.91,0,0,0-4.33-.7,12.16,12.16,0,0,0-4.73.86,7.32,7.32,0,0,0-3.27,2.53A6.83,6.83,0,0,0,78,20.19a6.81,6.81,0,0,0,1.19,4.1,7.24,7.24,0,0,0,3.27,2.49,12.35,12.35,0,0,0,4.73.85,12.16,12.16,0,0,0,4.36-.7,6.5,6.5,0,0,0,2.89-2.06,5.79,5.79,0,0,0,1.19-3.21H92.22A4,4,0,0,1,90.49,24Z"/><path class="cls-1" d="M125.6,14.1a5.54,5.54,0,0,0-2-1.06,8.22,8.22,0,0,0-2.44-.34,7.23,7.23,0,0,0-2.65.46A6.78,6.78,0,0,0,115,16.11a5.66,5.66,0,0,0-.31.67,5.29,5.29,0,0,0-.27-.85,4.68,4.68,0,0,0-1.29-1.83,5.41,5.41,0,0,0-2-1.06,8.27,8.27,0,0,0-2.44-.34,7.51,7.51,0,0,0-2.73.46A6.28,6.28,0,0,0,104,14.41a6.5,6.5,0,0,0-1.4,1.73,6.7,6.7,0,0,0-.43,1V13H98.4V27.29h3.73V18.82a3.88,3.88,0,0,1,.66-1.08,5.67,5.67,0,0,1,2-1.45,6.08,6.08,0,0,1,2.7-.58,4,4,0,0,1,2.85.85,3.54,3.54,0,0,1,.88,2.66v8.07h3.73V18.56c0-.13,0-.26,0-.38a4.59,4.59,0,0,1,.33-.44,5.72,5.72,0,0,1,2-1.45,6.14,6.14,0,0,1,2.7-.58,4.08,4.08,0,0,1,2.87.85,3.5,3.5,0,0,1,.89,2.66v8.07h3.74V18.56a6.57,6.57,0,0,0-.48-2.63A4.91,4.91,0,0,0,125.6,14.1Z"/><path class="cls-1" d="M146.18,25.16a5.21,5.21,0,0,0,1.22-2.61h-3.62a2.93,2.93,0,0,1-1.54,1.59,6.41,6.41,0,0,1-3,.62,6.68,6.68,0,0,1-2.77-.52,4.54,4.54,0,0,1-1.84-1.4,4.21,4.21,0,0,1-.82-2h13.62a9.1,9.1,0,0,0-.77-4.58,5.77,5.77,0,0,0-2.77-2.68,10.73,10.73,0,0,0-4.68-.89,11.9,11.9,0,0,0-4.81.89,7.21,7.21,0,0,0-3.2,2.57,6.93,6.93,0,0,0-1.15,4,6.75,6.75,0,0,0,1.18,4,7.39,7.39,0,0,0,3.27,2.55,12.54,12.54,0,0,0,4.83.87,11.43,11.43,0,0,0,4.13-.66A6.62,6.62,0,0,0,146.18,25.16Zm-10.47-8.72a6.81,6.81,0,0,1,6.68-.05,3,3,0,0,1,1.36,2.28H134A4.1,4.1,0,0,1,135.71,16.44Z"/><path class="cls-1" d="M153.3,26.67a8.13,8.13,0,0,0,3.89.93,7.19,7.19,0,0,0,3.25-.67,6.08,6.08,0,0,0,2.18-1.78,7.72,7.72,0,0,0,1.24-2.42s0-.08,0-.12v1c0,.61,0,1.27.09,2s.12,1.27.17,1.71h3.48v-20h-3.74v10a.22.22,0,0,0,0-.08,6.71,6.71,0,0,0-1.22-2.36,5.58,5.58,0,0,0-2.18-1.6,8.45,8.45,0,0,0-3.28-.57,8.15,8.15,0,0,0-3.93.93,6.94,6.94,0,0,0-2.72,2.6,7.55,7.55,0,0,0-1,3.93,7.45,7.45,0,0,0,1,3.9A7,7,0,0,0,153.3,26.67Zm1.39-9.84a5.16,5.16,0,0,1,3.71-1.26,7.13,7.13,0,0,1,2.91.54,4.35,4.35,0,0,1,1.9,1.57,4.4,4.4,0,0,1,.67,2.48,4.36,4.36,0,0,1-.66,2.39,4.41,4.41,0,0,1-1.89,1.61,7,7,0,0,1-2.93.57,5.79,5.79,0,0,1-2.63-.57,4.43,4.43,0,0,1-1.77-1.6,4.47,4.47,0,0,1-.63-2.4A4.42,4.42,0,0,1,154.69,16.83Z"/><rect class="cls-1" x="171.87" y="13.01" width="3.73" height="14.27"/><rect class="cls-1" x="171.58" y="6.75" width="4.34" height="3.27"/><path class="cls-1" d="M193,13v4.3a8,8,0,0,0-.32-.94,5.71,5.71,0,0,0-2.19-2.68,7.18,7.18,0,0,0-4-1,8.47,8.47,0,0,0-4,.93,7.16,7.16,0,0,0-2.8,2.6,7.29,7.29,0,0,0-1,3.93,7.37,7.37,0,0,0,1,3.9,7,7,0,0,0,2.75,2.61,8.08,8.08,0,0,0,3.87.93,7.18,7.18,0,0,0,3.24-.67,6.12,6.12,0,0,0,2.19-1.78A7.91,7.91,0,0,0,193,22.73l0-.12v1c0,.56,0,1.12.06,1.7s.1,1.23.2,2h3.47V13Zm-.66,9.54a4.38,4.38,0,0,1-1.9,1.61,6.93,6.93,0,0,1-2.93.57,5.82,5.82,0,0,1-2.63-.57,4.4,4.4,0,0,1-1.76-1.6,4.47,4.47,0,0,1-.63-2.4,4.35,4.35,0,0,1,1.32-3.31,5.13,5.13,0,0,1,3.7-1.25,7.22,7.22,0,0,1,2.92.53,4.21,4.21,0,0,1,1.89,1.55,4.4,4.4,0,0,1,.68,2.48A4.36,4.36,0,0,1,192.32,22.55Z"/><path class="cls-1" d="M145.41,32.92a1.52,1.52,0,0,1,.94.29,1.38,1.38,0,0,1,.47.81h1.73a2.92,2.92,0,0,0-1-1.83,3.16,3.16,0,0,0-2.07-.68,3.38,3.38,0,0,0-1.67.4,2.72,2.72,0,0,0-1.14,1.14,3.66,3.66,0,0,0-.41,1.76,3.59,3.59,0,0,0,.41,1.75,2.81,2.81,0,0,0,1.14,1.15,3.49,3.49,0,0,0,1.67.4,3.16,3.16,0,0,0,2.07-.68,2.92,2.92,0,0,0,1-1.83h-1.73a1.38,1.38,0,0,1-.47.81,1.52,1.52,0,0,1-.94.29,1.4,1.4,0,0,1-1.09-.48,2.53,2.53,0,0,1,0-2.82A1.4,1.4,0,0,1,145.41,32.92Z"/><path class="cls-1" d="M151.35,32.82V31.59h-1.64V38h1.64V34.93q0-1.68,1.8-1.68h.47V31.5a2.61,2.61,0,0,0-1.32.35A2.76,2.76,0,0,0,151.35,32.82Z"/><path class="cls-1" d="M159.09,31.91a3.69,3.69,0,0,0-3.34,0,2.72,2.72,0,0,0-1.14,1.14,3.66,3.66,0,0,0-.41,1.76,3.59,3.59,0,0,0,.41,1.75,2.81,2.81,0,0,0,1.14,1.15,3.49,3.49,0,0,0,1.67.4,3.35,3.35,0,0,0,1.46-.31A2.94,2.94,0,0,0,160,37a2.84,2.84,0,0,0,.55-1.21h-1.73a1.23,1.23,0,0,1-.49.76,1.56,1.56,0,0,1-.94.27,1.5,1.5,0,0,1-1.07-.4,1.74,1.74,0,0,1-.46-1.27h4.71a3,3,0,0,0,.06-.55,3.16,3.16,0,0,0-.39-1.58A2.79,2.79,0,0,0,159.09,31.91Zm-3.28,2.49a1.54,1.54,0,0,1,1.61-1.6,1.59,1.59,0,0,1,1.1.41,1.47,1.47,0,0,1,.41,1.19Z"/><path class="cls-1" d="M166.47,32.93a2,2,0,0,0-.82-1,2.44,2.44,0,0,0-1.39-.39,2.75,2.75,0,0,0-1.47.4,2.62,2.62,0,0,0-1,1.14,4.37,4.37,0,0,0,0,3.52,2.62,2.62,0,0,0,1,1.14,2.84,2.84,0,0,0,1.47.4,2.44,2.44,0,0,0,1.39-.39,2.1,2.1,0,0,0,.82-1V38h1.63V31.59h-1.63ZM166,36.16a1.74,1.74,0,0,1-2.45,0,1.9,1.9,0,0,1-.47-1.36,1.93,1.93,0,0,1,.47-1.37,1.74,1.74,0,0,1,2.45,0,2.15,2.15,0,0,1,0,2.71Z"/><path class="cls-1" d="M171.76,36.43a.87.87,0,0,1-.19-.65V33H173V31.59h-1.44V30h-1.64v1.59H169V33h.89v2.79a2.28,2.28,0,0,0,.58,1.74,2.35,2.35,0,0,0,1.65.52H173v-1.4h-.64A.82.82,0,0,1,171.76,36.43Z"/><path class="cls-1" d="M175,28.85a1.08,1.08,0,0,0-.73.25.82.82,0,0,0-.28.65.81.81,0,0,0,.28.63,1,1,0,0,0,.73.25,1,1,0,0,0,.73-.25.84.84,0,0,0,.28-.63.85.85,0,0,0-.28-.65A1.09,1.09,0,0,0,175,28.85Z"/><rect class="cls-1" x="174.19" y="31.59" width="1.64" height="6.43"/><polygon class="cls-1" points="180.12 36.39 178.48 31.59 176.72 31.59 179.1 38.02 181.1 38.02 183.48 31.59 181.74 31.59 180.12 36.39"/><path class="cls-1" d="M188.94,31.91a3.29,3.29,0,0,0-1.66-.4,3.42,3.42,0,0,0-1.68.4,2.76,2.76,0,0,0-1.13,1.14,3.66,3.66,0,0,0-.41,1.76,3.59,3.59,0,0,0,.41,1.75,2.84,2.84,0,0,0,1.13,1.15,3.53,3.53,0,0,0,1.68.4,3.28,3.28,0,0,0,1.45-.31,2.9,2.9,0,0,0,1.08-.83,2.71,2.71,0,0,0,.54-1.21h-1.73a1.26,1.26,0,0,1-.48.76,1.59,1.59,0,0,1-.95.27,1.47,1.47,0,0,1-1.06-.4,1.79,1.79,0,0,1-.47-1.27h4.72a4,4,0,0,0,.05-.55,3.27,3.27,0,0,0-.38-1.58A2.75,2.75,0,0,0,188.94,31.91Zm-3.28,2.49a1.66,1.66,0,0,1,.5-1.19,1.63,1.63,0,0,1,1.12-.41,1.55,1.55,0,0,1,1.09.41,1.44,1.44,0,0,1,.42,1.19Z"/><path class="cls-1" d="M195.53,34.64a8.38,8.38,0,0,0-1.18-.34l-.81-.22a1.29,1.29,0,0,1-.46-.26.56.56,0,0,1-.19-.43.65.65,0,0,1,.24-.53,1,1,0,0,1,.65-.2,1.22,1.22,0,0,1,.84.28,1.25,1.25,0,0,1,.42.74h1.53a2.58,2.58,0,0,0-.88-1.58,2.86,2.86,0,0,0-1.88-.59,2.73,2.73,0,0,0-1.76.52,1.68,1.68,0,0,0-.64,1.36,1.45,1.45,0,0,0,.32,1,1.84,1.84,0,0,0,.76.54,8.19,8.19,0,0,0,1.17.34,7.14,7.14,0,0,1,.81.22,1.33,1.33,0,0,1,.47.26.59.59,0,0,1,.19.46.66.66,0,0,1-.22.52.87.87,0,0,1-.63.21,1.44,1.44,0,0,1-.94-.28,1.06,1.06,0,0,1-.42-.75h-1.57a2.34,2.34,0,0,0,.92,1.61,3.24,3.24,0,0,0,2,.57A2.72,2.72,0,0,0,196,37.6a1.63,1.63,0,0,0,.64-1.34,1.52,1.52,0,0,0-.33-1A1.93,1.93,0,0,0,195.53,34.64Z"/></svg>